<svg id="visual" viewBox="0 0 675 900" width="675" height="900" xmlns="http://www.w3.org/2000/svg" xmlns:xlink="http://www.w3.org/1999/xlink" version="1.1"><rect x="0" y="0" width="675" height="900" fill="#fff"></rect><defs><linearGradient id="grad1_0" x1="0%" y1="0%" x2="100%" y2="100%"><stop offset="30%" stop-color="#3d3b3b" stop-opacity="1"></stop><stop offset="70%" stop-color="#3d3b3b" stop-opacity="1"></stop></linearGradient></defs><defs><linearGradient id="grad1_1" x1="0%" y1="0%" x2="100%" y2="100%"><stop offset="30%" stop-color="#3d3b3b" stop-opacity="1"></stop><stop offset="70%" stop-color="#989797" stop-opacity="1"></stop></linearGradient></defs><defs><linearGradient id="grad1_2" x1="0%" y1="0%" x2="100%" y2="100%"><stop offset="30%" stop-color="#ffffff" stop-opacity="1"></stop><stop offset="70%" stop-color="#989797" stop-opacity="1"></stop></linearGradient></defs><defs><linearGradient id="grad2_0" x1="0%" y1="0%" x2="100%" y2="100%"><stop offset="30%" stop-color="#3d3b3b" stop-opacity="1"></stop><stop offset="70%" stop-color="#3d3b3b" stop-opacity="1"></stop></linearGradient></defs><defs><linearGradient id="grad2_1" x1="0%" y1="0%" x2="100%" y2="100%"><stop offset="30%" stop-color="#989797" stop-opacity="1"></stop><stop offset="70%" stop-color="#3d3b3b" stop-opacity="1"></stop></linearGradient></defs><defs><linearGradient id="grad2_2" x1="0%" y1="0%" x2="100%" y2="100%"><stop offset="30%" stop-color="#989797" stop-opacity="1"></stop><stop offset="70%" stop-color="#ffffff" stop-opacity="1"></stop></linearGradient></defs><g transform="translate(675, 0)"><path d="M0 253.1C-22.5 252.3 -45.1 251.4 -65.5 244.5C-86 237.6 -104.3 224.6 -123 213C-141.7 201.5 -160.7 191.4 -177.5 177.5C-194.3 163.5 -208.9 145.7 -218.2 126C-227.6 106.3 -231.7 84.7 -236.7 63.4C-241.6 42.1 -247.4 21 -253.1 0L0 0Z" fill="#cacaca"></path><path d="M0 168.8C-15 168.2 -30 167.6 -43.7 163C-57.3 158.4 -69.5 149.7 -82 142C-94.5 134.3 -107.1 127.6 -118.3 118.3C-129.5 109 -139.3 97.1 -145.5 84C-151.7 70.9 -154.5 56.5 -157.8 42.3C-161.1 28.1 -164.9 14 -168.7 0L0 0Z" fill="#696767"></path><path d="M0 84.4C-7.5 84.1 -15 83.8 -21.8 81.5C-28.7 79.2 -34.8 74.9 -41 71C-47.2 67.2 -53.6 63.8 -59.2 59.2C-64.8 54.5 -69.6 48.6 -72.7 42C-75.9 35.4 -77.2 28.2 -78.9 21.1C-80.5 14 -82.5 7 -84.4 0L0 0Z" fill="#3d3b3b"></path></g><g transform="translate(0, 900)"><path d="M0 -253.1C21 -246.3 41.9 -239.6 62.6 -233.8C83.4 -227.9 103.9 -223.1 124 -214.8C144.1 -206.5 163.9 -194.7 179 -179C194.1 -163.2 204.5 -143.5 214.8 -124C225 -104.5 235.1 -85.3 241.5 -64.7C247.8 -44.1 250.5 -22 253.1 0L0 0Z" fill="#cacaca"></path><path d="M0 -168.7C14 -164.2 27.9 -159.7 41.8 -155.8C55.6 -152 69.2 -148.7 82.7 -143.2C96.1 -137.6 109.3 -129.8 119.3 -119.3C129.4 -108.8 136.3 -95.7 143.2 -82.7C150 -69.7 156.7 -56.9 161 -43.1C165.2 -29.4 167 -14.7 168.8 0L0 0Z" fill="#696767"></path><path d="M0 -84.4C7 -82.1 14 -79.9 20.9 -77.9C27.8 -76 34.6 -74.4 41.3 -71.6C48 -68.8 54.6 -64.9 59.7 -59.7C64.7 -54.4 68.2 -47.8 71.6 -41.3C75 -34.8 78.4 -28.4 80.5 -21.6C82.6 -14.7 83.5 -7.3 84.4 0L0 0Z" fill="#3d3b3b"></path></g></svg>