<svg id="visual" viewBox="0 0 900 450" width="900" height="450" xmlns="http://www.w3.org/2000/svg" xmlns:xlink="http://www.w3.org/1999/xlink" version="1.1"><rect x="0" y="0" width="900" height="450" fill="#ffffff"></rect><defs><linearGradient id="grad1_0" x1="50%" y1="0%" x2="100%" y2="100%"><stop offset="10%" stop-color="#2f2c2c" stop-opacity="1"></stop><stop offset="90%" stop-color="#2f2c2c" stop-opacity="1"></stop></linearGradient></defs><defs><linearGradient id="grad1_1" x1="50%" y1="0%" x2="100%" y2="100%"><stop offset="10%" stop-color="#2f2c2c" stop-opacity="1"></stop><stop offset="90%" stop-color="#6e6b6b" stop-opacity="1"></stop></linearGradient></defs><defs><linearGradient id="grad1_2" x1="50%" y1="0%" x2="100%" y2="100%"><stop offset="10%" stop-color="#b4b2b2" stop-opacity="1"></stop><stop offset="90%" stop-color="#6e6b6b" stop-opacity="1"></stop></linearGradient></defs><defs><linearGradient id="grad1_3" x1="50%" y1="0%" x2="100%" y2="100%"><stop offset="10%" stop-color="#b4b2b2" stop-opacity="1"></stop><stop offset="90%" stop-color="#ffffff" stop-opacity="1"></stop></linearGradient></defs><defs><linearGradient id="grad2_0" x1="0%" y1="0%" x2="50%" y2="100%"><stop offset="10%" stop-color="#2f2c2c" stop-opacity="1"></stop><stop offset="90%" stop-color="#2f2c2c" stop-opacity="1"></stop></linearGradient></defs><defs><linearGradient id="grad2_1" x1="0%" y1="0%" x2="50%" y2="100%"><stop offset="10%" stop-color="#6e6b6b" stop-opacity="1"></stop><stop offset="90%" stop-color="#2f2c2c" stop-opacity="1"></stop></linearGradient></defs><defs><linearGradient id="grad2_2" x1="0%" y1="0%" x2="50%" y2="100%"><stop offset="10%" stop-color="#6e6b6b" stop-opacity="1"></stop><stop offset="90%" stop-color="#b4b2b2" stop-opacity="1"></stop></linearGradient></defs><defs><linearGradient id="grad2_3" x1="0%" y1="0%" x2="50%" y2="100%"><stop offset="10%" stop-color="#ffffff" stop-opacity="1"></stop><stop offset="90%" stop-color="#b4b2b2" stop-opacity="1"></stop></linearGradient></defs><g transform="translate(900, 0)"><path d="M0 270C-29 264.4 -58.1 258.8 -79.4 244.4C-100.8 230 -114.5 206.9 -141.1 194.2C-167.7 181.4 -207.1 179.1 -218.4 158.7C-229.8 138.3 -212.9 99.9 -216.8 70.5C-220.7 41 -245.4 20.5 -270 0L0 0Z" fill="#d9d8d8"></path><path d="M0 202.5C-21.8 198.3 -43.5 194.1 -59.6 183.3C-75.6 172.5 -85.9 155.2 -105.8 145.6C-125.7 136.1 -155.3 134.3 -163.8 119C-172.3 103.7 -159.7 74.9 -162.6 52.8C-165.6 30.7 -184 15.4 -202.5 0L0 0Z" fill="#908e8e"></path><path d="M0 135C-14.5 132.2 -29 129.4 -39.7 122.2C-50.4 115 -57.2 103.5 -70.5 97.1C-83.8 90.7 -103.6 89.5 -109.2 79.4C-114.9 69.2 -106.5 50 -108.4 35.2C-110.4 20.5 -122.7 10.2 -135 0L0 0Z" fill="#4d4a4a"></path><path d="M0 67.5C-7.3 66.1 -14.5 64.7 -19.9 61.1C-25.2 57.5 -28.6 51.7 -35.3 48.5C-41.9 45.4 -51.8 44.8 -54.6 39.7C-57.4 34.6 -53.2 25 -54.2 17.6C-55.2 10.2 -61.3 5.1 -67.5 0L0 0Z" fill="#2f2c2c"></path></g><g transform="translate(0, 450)"><path d="M0 -270C25.9 -263.8 51.8 -257.6 81.9 -252C112 -246.5 146.4 -241.6 158.1 -217.6C169.8 -193.7 158.9 -150.6 175.6 -127.5C192.2 -104.5 236.4 -101.4 256.8 -83.4C277.1 -65.5 273.6 -32.8 270 0L0 0Z" fill="#d9d8d8"></path><path d="M0 -202.5C19.4 -197.8 38.8 -193.2 61.4 -189C84 -184.9 109.8 -181.2 118.6 -163.2C127.4 -145.2 119.2 -113 131.7 -95.7C144.2 -78.4 177.3 -76 192.6 -62.6C207.8 -49.1 205.2 -24.6 202.5 0L0 0Z" fill="#908e8e"></path><path d="M0 -135C12.9 -131.9 25.9 -128.8 40.9 -126C56 -123.2 73.2 -120.8 79.1 -108.8C84.9 -96.8 79.5 -75.3 87.8 -63.8C96.1 -52.2 118.2 -50.7 128.4 -41.7C138.6 -32.8 136.8 -16.4 135 0L0 0Z" fill="#4d4a4a"></path><path d="M0 -67.5C6.5 -65.9 12.9 -64.4 20.5 -63C28 -61.6 36.6 -60.4 39.5 -54.4C42.5 -48.4 39.7 -37.7 43.9 -31.9C48.1 -26.1 59.1 -25.3 64.2 -20.9C69.3 -16.4 68.4 -8.2 67.5 0L0 0Z" fill="#2f2c2c"></path></g></svg>