<svg id="visual" viewBox="0 0 675 900" width="675" height="900" xmlns="http://www.w3.org/2000/svg" xmlns:xlink="http://www.w3.org/1999/xlink" version="1.1"><rect x="0" y="0" width="675" height="900" fill="#fff"></rect><defs><linearGradient id="grad1_0" x1="0%" y1="0%" x2="100%" y2="100%"><stop offset="30%" stop-color="#000000" stop-opacity="1"></stop><stop offset="70%" stop-color="#000000" stop-opacity="1"></stop></linearGradient></defs><defs><linearGradient id="grad1_1" x1="0%" y1="0%" x2="100%" y2="100%"><stop offset="30%" stop-color="#000000" stop-opacity="1"></stop><stop offset="70%" stop-color="#4e4e4e" stop-opacity="1"></stop></linearGradient></defs><defs><linearGradient id="grad1_2" x1="0%" y1="0%" x2="100%" y2="100%"><stop offset="30%" stop-color="#a2a2a2" stop-opacity="1"></stop><stop offset="70%" stop-color="#4e4e4e" stop-opacity="1"></stop></linearGradient></defs><defs><linearGradient id="grad1_3" x1="0%" y1="0%" x2="100%" y2="100%"><stop offset="30%" stop-color="#a2a2a2" stop-opacity="1"></stop><stop offset="70%" stop-color="#ffffff" stop-opacity="1"></stop></linearGradient></defs><defs><linearGradient id="grad2_0" x1="0%" y1="0%" x2="100%" y2="100%"><stop offset="30%" stop-color="#000000" stop-opacity="1"></stop><stop offset="70%" stop-color="#000000" stop-opacity="1"></stop></linearGradient></defs><defs><linearGradient id="grad2_1" x1="0%" y1="0%" x2="100%" y2="100%"><stop offset="30%" stop-color="#4e4e4e" stop-opacity="1"></stop><stop offset="70%" stop-color="#000000" stop-opacity="1"></stop></linearGradient></defs><defs><linearGradient id="grad2_2" x1="0%" y1="0%" x2="100%" y2="100%"><stop offset="30%" stop-color="#4e4e4e" stop-opacity="1"></stop><stop offset="70%" stop-color="#a2a2a2" stop-opacity="1"></stop></linearGradient></defs><defs><linearGradient id="grad2_3" x1="0%" y1="0%" x2="100%" y2="100%"><stop offset="30%" stop-color="#ffffff" stop-opacity="1"></stop><stop offset="70%" stop-color="#a2a2a2" stop-opacity="1"></stop></linearGradient></defs><g transform="translate(675, 0)"><path d="M0 393.8C-21.3 395.9 -42.7 398.1 -61.6 388.9C-80.5 379.7 -97.1 359.2 -110 338.6C-122.9 317.9 -132.2 297.1 -145.7 286C-159.3 274.9 -177.2 273.4 -196.3 270.2C-215.4 267 -235.7 261.9 -248.9 248.9C-262.1 235.9 -268.3 214.8 -267 194C-265.6 173.1 -256.7 152.5 -276.2 140.7C-295.7 129 -343.7 126.1 -337.6 109.7C-331.5 93.3 -271.3 63.5 -271.6 43C-271.9 22.5 -332.8 11.2 -393.7 0L0 0Z" fill="#d0d0d0"></path><path d="M0 295.3C-16 296.9 -32 298.6 -46.2 291.7C-60.4 284.8 -72.8 269.4 -82.5 253.9C-92.2 238.4 -99.1 222.8 -109.3 214.5C-119.5 206.2 -132.9 205.1 -147.2 202.7C-161.6 200.2 -176.8 196.5 -186.7 186.7C-196.6 176.9 -201.3 161.1 -200.2 145.5C-199.2 129.8 -192.5 114.4 -207.2 105.6C-221.8 96.7 -257.8 94.5 -253.2 82.3C-248.6 70 -203.5 47.7 -203.7 32.3C-204 16.9 -249.6 8.4 -295.3 0L0 0Z" fill="#777777"></path><path d="M0 196.9C-10.7 198 -21.3 199 -30.8 194.5C-40.3 189.9 -48.6 179.6 -55 169.3C-61.5 159 -66.1 148.6 -72.9 143C-79.7 137.4 -88.6 136.7 -98.2 135.1C-107.7 133.5 -117.8 131 -124.5 124.5C-131.1 117.9 -134.2 107.4 -133.5 97C-132.8 86.6 -128.3 76.3 -138.1 70.4C-147.9 64.5 -171.9 63 -168.8 54.9C-165.8 46.7 -135.6 31.8 -135.8 21.5C-136 11.2 -166.4 5.6 -196.9 0L0 0Z" fill="#292929"></path><path d="M0 98.4C-5.3 99 -10.7 99.5 -15.4 97.2C-20.1 94.9 -24.3 89.8 -27.5 84.6C-30.7 79.5 -33 74.3 -36.4 71.5C-39.8 68.7 -44.3 68.4 -49.1 67.6C-53.9 66.7 -58.9 65.5 -62.2 62.2C-65.5 59 -67.1 53.7 -66.7 48.5C-66.4 43.3 -64.2 38.1 -69.1 35.2C-73.9 32.2 -85.9 31.5 -84.4 27.4C-82.9 23.3 -67.8 15.9 -67.9 10.8C-68 5.6 -83.2 2.8 -98.4 0L0 0Z" fill="#000000"></path></g><g transform="translate(0, 900)"><path d="M0 -393.7C14 -350.1 27.9 -306.5 47.6 -300.3C67.2 -294 92.5 -325.2 102 -313.8C111.4 -302.5 104.9 -248.6 126.2 -247.7C147.5 -246.8 196.6 -299 226.9 -312.3C257.2 -325.6 268.8 -300 278.4 -278.4C288.1 -256.8 295.9 -239.2 306.6 -222.8C317.4 -206.4 331 -191.3 336.8 -171.6C342.6 -151.9 340.4 -127.7 324.3 -105.4C308.2 -83.1 278.2 -62.8 287.4 -45.5C296.7 -28.3 345.2 -14.1 393.8 0L0 0Z" fill="#d0d0d0"></path><path d="M0 -295.3C10.5 -262.6 20.9 -229.9 35.7 -225.2C50.4 -220.5 69.4 -243.9 76.5 -235.4C83.6 -226.9 78.7 -186.4 94.7 -185.8C110.6 -185.1 147.4 -224.2 170.2 -234.2C192.9 -244.2 201.6 -225 208.8 -208.8C216.1 -192.6 221.9 -179.4 230 -167.1C238 -154.8 248.3 -143.5 252.6 -128.7C256.9 -113.9 255.3 -95.8 243.2 -79C231.2 -62.3 208.6 -47.1 215.6 -34.1C222.5 -21.2 258.9 -10.6 295.3 0L0 0Z" fill="#777777"></path><path d="M0 -196.9C7 -175.1 14 -153.2 23.8 -150.1C33.6 -147 46.3 -162.6 51 -156.9C55.7 -151.2 52.5 -124.3 63.1 -123.8C73.8 -123.4 98.3 -149.5 113.4 -156.1C128.6 -162.8 134.4 -150 139.2 -139.2C144 -128.4 147.9 -119.6 153.3 -111.4C158.7 -103.2 165.5 -95.6 168.4 -85.8C171.3 -76 170.2 -63.8 162.2 -52.7C154.1 -41.5 139.1 -31.4 143.7 -22.8C148.3 -14.1 172.6 -7.1 196.9 0L0 0Z" fill="#292929"></path><path d="M0 -98.4C3.5 -87.5 7 -76.6 11.9 -75.1C16.8 -73.5 23.1 -81.3 25.5 -78.5C27.9 -75.6 26.2 -62.1 31.6 -61.9C36.9 -61.7 49.1 -74.7 56.7 -78.1C64.3 -81.4 67.2 -75 69.6 -69.6C72 -64.2 74 -59.8 76.7 -55.7C79.3 -51.6 82.8 -47.8 84.2 -42.9C85.6 -38 85.1 -31.9 81.1 -26.3C77.1 -20.8 69.5 -15.7 71.9 -11.4C74.2 -7.1 86.3 -3.5 98.4 0L0 0Z" fill="#000000"></path></g></svg>